HIERARCHY
ROOT Hips
{
	OFFSET 0.000000 0.000000 0.000000
	CHANNELS 6 Xposition Yposition Zposition Zrotation Yrotation Xrotation 
	JOINT LHipJoint
	{
		OFFSET 0.000000 0.000000 0.000000
		CHANNELS 3 Zrotation Yrotation Xrotation
		JOINT LeftUpLeg
		{
			OFFSET 1.363060 -1.794630 0.839290
			CHANNELS 3 Zrotation Yrotation Xrotation
			JOINT LeftLeg
			{
				OFFSET 2.448110 -6.726130 0.000000
				CHANNELS 3 Zrotation Yrotation Xrotation
				JOINT LeftFoot
				{
					OFFSET 2.562200 -7.039590 0.000000
					CHANNELS 3 Zrotation Yrotation Xrotation
					JOINT LeftToeBase
					{
						OFFSET 0.157640 -0.433110 2.322550
						CHANNELS 3 Zrotation Yrotation Xrotation
						End Site
						{
							OFFSET 0.000000 0.000000 0.000000
						}
					}
				}
			}
		}
	}
	JOINT RHipJoint
	{
		OFFSET 0.000000 0.000000 0.000000
		CHANNELS 3 Zrotation Yrotation Xrotation
		JOINT RightUpLeg
		{
			OFFSET -1.305520 -1.794630 0.839290
			CHANNELS 3 Zrotation Yrotation Xrotation
			JOINT RightLeg
			{
				OFFSET -2.542530 -6.985550 0.000000
				CHANNELS 3 Zrotation Yrotation Xrotation
				JOINT RightFoot
				{
					OFFSET -2.568260 -7.056230 0.000000
					CHANNELS 3 Zrotation Yrotation Xrotation
					JOINT RightToeBase
					{
						OFFSET -0.164730 -0.452590 2.363150
						CHANNELS 3 Zrotation Yrotation Xrotation
						End Site
						{
							OFFSET 0.000000 0.000000 0.000000
						}
					}
				}
			}
		}
	}
	JOINT LowerBack
	{
		OFFSET 0.000000 0.000000 0.000000
		CHANNELS 3 Zrotation Yrotation Xrotation
		JOINT Spine
		{
			OFFSET 0.028270 2.035590 -0.193380
			CHANNELS 3 Zrotation Yrotation Xrotation
			JOINT Spine1
			{
				OFFSET 0.056720 2.048850 -0.042750
				CHANNELS 3 Zrotation Yrotation Xrotation
				JOINT Neck
				{
					OFFSET 0.000000 0.000000 0.000000
					CHANNELS 3 Zrotation Yrotation Xrotation
					JOINT Neck1
					{
						OFFSET -0.054170 1.746240 0.172020
						CHANNELS 3 Zrotation Yrotation Xrotation
						JOINT Head
						{
							OFFSET 0.104070 1.761360 -0.123970
							CHANNELS 3 Zrotation Yrotation Xrotation
							End Site
							{
								OFFSET 0.000000 0.000000 0.000000
							}
						}
					}
				}
				JOINT LeftShoulder
				{
					OFFSET 0.000000 0.000000 0.000000
					CHANNELS 3 Zrotation Yrotation Xrotation
					JOINT LeftArm
					{
						OFFSET 3.362410 1.200890 -0.311210
						CHANNELS 3 Zrotation Yrotation Xrotation
						JOINT LeftForeArm
						{
							OFFSET 4.983000 -0.000000 -0.000000
							CHANNELS 3 Zrotation Yrotation Xrotation
							JOINT LeftHand
							{
								OFFSET 3.483560 -0.000000 -0.000000
								CHANNELS 3 Zrotation Yrotation Xrotation
								JOINT LeftFingerBase
								{
									OFFSET 0.000000 0.000000 0.000000
									CHANNELS 3 Zrotation Yrotation Xrotation
									JOINT LeftHandIndex1
									{
										OFFSET 0.715260 -0.000000 -0.000000
										CHANNELS 3 Zrotation Yrotation Xrotation
										End Site
										{
											OFFSET 0.000000 0.000000 0.000000
										}
									}
								}
								JOINT LThumb
								{
									OFFSET 0.000000 0.000000 0.000000
									CHANNELS 3 Zrotation Yrotation Xrotation
									End Site
									{
										OFFSET 0.000000 0.000000 0.000000
									}
								}
							}
						}
					}
				}
				JOINT RightShoulder
				{
					OFFSET 0.000000 0.000000 0.000000
					CHANNELS 3 Zrotation Yrotation Xrotation
					JOINT RightArm
					{
						OFFSET -3.136600 1.374050 -0.404650
						CHANNELS 3 Zrotation Yrotation Xrotation
						JOINT RightForeArm
						{
							OFFSET -5.241900 -0.000000 -0.000000
							CHANNELS 3 Zrotation Yrotation Xrotation
							JOINT RightHand
							{
								OFFSET -3.444170 -0.000000 -0.000000
								CHANNELS 3 Zrotation Yrotation Xrotation
								JOINT RightFingerBase
								{
									OFFSET 0.000000 0.000000 0.000000
									CHANNELS 3 Zrotation Yrotation Xrotation
									JOINT RightHandIndex1
									{
										OFFSET -0.622530 -0.000000 -0.000000
										CHANNELS 3 Zrotation Yrotation Xrotation
										End Site
										{
											OFFSET 0.000000 0.000000 0.000000
										}
									}
								}
								JOINT RThumb
								{
									OFFSET 0.000000 0.000000 0.000000
									CHANNELS 3 Zrotation Yrotation Xrotation
									End Site
									{
										OFFSET 0.000000 0.000000 0.000000
									}
								}
							}
						}
					}
				}
			}
		}
	}
}
MOTION
Frames: 8
Frame Time: 0.033333
1.368723 17.243360 -3.641012 -99.347936 82.947910 -108.417896 -28.493471 18.671479 -6.491448 -87.295629 43.729729 -149.660405 -91.522369 62.874032 -105.637887 -5.415764 29.854798 4.878938 0.192131 0.021316 -48.444227 90.244742 21.672302 101.632460 97.480192 45.128503 162.354345 5.173793 27.912929 29.536133 -3.353361 -7.696994 -6.259617 0.402580 -0.234204 -41.920389 13.277274 0.375092 7.575239 156.677405 -77.025832 -155.152553 0.664994 0.522676 -42.193669 -5.919128 -6.337715 32.897383 -4.397508 -0.437226 -0.645382 0.061399 -0.053085 -0.076954 31.265318 9.623995 158.442185 79.886340 -19.041903 -111.253067 66.182237 -71.112310 -67.147662 11.111304 -4.741908 -0.783204 1.394530 -0.041403 0.000041 -0.058573 0.071514 -0.062104 0.058291 0.062423 -0.049548 -48.074394 -13.981294 168.719704 -83.387120 52.394138 0.057548 -30.703954 -61.924762 -11.459717 -4.153887 3.932499 -0.203823 -0.247049 -1.172290 -0.033881 0.059554 0.062920 0.067803 0.070545 0.074486 0.058171 
1.273432 17.344869 -2.887594 -100.402219 82.554678 -110.314789 -29.039036 17.643755 -6.927178 -87.607565 44.181390 -151.296271 -92.785278 61.411805 -103.398990 -8.012155 32.749939 12.324567 0.544746 0.033003 -48.331917 90.515885 22.163716 102.123436 98.635933 45.421760 163.040321 2.929516 26.237124 32.473381 -2.681474 -7.487855 -9.081684 0.362646 -0.234759 -41.287273 13.970298 -0.108522 8.266342 158.457202 -77.237174 -156.938139 0.432030 1.081344 -41.765159 -6.037032 -6.346030 32.885640 -4.577229 -0.393455 -0.546122 0.062945 -0.057644 -0.062741 31.952363 8.802290 158.435021 80.403043 -19.850154 -113.171613 70.009452 -71.054285 -71.308578 10.918857 -4.077135 -0.678428 0.946824 0.146645 0.004574 -0.061720 0.061130 -0.052360 0.069127 0.057693 -0.061677 -48.557068 -14.623062 168.715795 -86.055191 53.675402 -1.857583 -21.076629 -61.046072 -16.939276 -4.093490 2.952678 -0.055958 -0.282128 -2.081587 -0.016577 0.066897 0.054148 0.058026 0.056938 0.058221 0.067292 
1.146430 17.460731 -2.206506 -100.764804 81.944612 -111.482821 -29.860785 15.876254 -7.140743 -88.776419 45.186264 -153.320117 -93.072812 58.981600 -99.132011 -10.029562 36.023537 17.739074 0.746442 0.039217 -47.345136 90.902257 22.771883 101.977010 100.021284 46.995012 163.955932 0.722764 24.784307 34.057476 -2.170135 -8.403594 -10.058451 0.502259 -0.266602 -40.529686 14.644110 0.092109 8.893558 161.705515 -77.614226 -159.793845 0.478265 0.655463 -41.497271 -6.201703 -6.677453 31.904281 -4.447047 -0.396954 -0.767432 0.066317 -0.057311 -0.075591 32.441839 7.785564 158.648874 82.054418 -21.195626 -115.415662 69.727734 -69.522636 -71.277434 10.846136 -4.040736 -0.613032 0.685138 0.077374 -0.009575 -0.054836 0.053527 -0.056863 0.055891 0.069857 -0.059262 -48.807673 -14.767340 168.243220 -90.388782 54.673596 -3.950395 -12.748720 -60.026904 -22.232843 -3.540742 1.763675 -0.055218 0.360991 -2.378945 -0.022173 0.053563 0.077020 0.067068 0.063359 0.070014 0.064009 
1.000030 17.571931 -1.601857 -101.888360 81.455238 -113.090797 -30.700560 14.943656 -6.932910 -90.196983 45.756290 -153.890711 -93.529923 56.625315 -95.013719 -11.134932 38.234668 21.899622 0.889136 0.031606 -45.673821 91.763746 23.230054 102.510177 101.864928 48.178261 166.120459 0.780860 24.518203 34.721829 -1.865128 -9.341827 -8.969500 0.628982 -0.287001 -39.768867 15.761041 -0.625006 9.594615 162.936682 -78.080294 -161.430587 0.236870 1.312610 -40.717547 -6.130005 -6.622084 30.364917 -4.955515 -0.365661 -0.314075 0.063185 -0.066236 -0.054162 33.323306 6.067891 159.026577 84.497533 -22.833572 -117.771007 69.402143 -67.543615 -69.979974 10.684197 -3.533091 -0.515875 0.310268 -0.151208 0.010696 -0.056801 0.057572 -0.047880 0.073390 0.048727 -0.074273 -48.696991 -15.852745 166.817742 -95.037850 56.139680 -6.207253 -7.815606 -59.512618 -24.367730 -2.992068 1.629625 -0.056960 0.861405 -2.479025 -0.055363 0.061159 0.044612 0.066367 0.049712 0.069429 0.075893 
0.861560 17.676396 -1.046405 -102.133650 81.065267 -113.921903 -31.309066 14.653278 -7.032410 -92.782298 46.503107 -154.197937 -95.485104 52.866133 -91.824941 -9.360166 38.509276 21.315422 0.947665 0.029673 -43.511256 91.756927 23.658928 102.598489 104.574766 49.229739 169.926301 -0.188059 23.736121 33.337840 -0.420421 -8.913946 -7.468841 0.781177 -0.309397 -39.541911 16.706037 -0.364496 10.729731 163.338092 -78.301875 -161.246125 0.818951 1.393636 -40.867901 -6.815813 -6.476547 29.103277 -5.242149 -0.356276 -0.655117 0.065234 -0.063770 -0.047357 33.950490 4.826791 160.112579 87.168497 -24.763409 -119.925981 70.102339 -65.551907 -68.439508 10.654361 -3.495927 -0.366854 0.079370 -0.108394 0.012758 -0.045417 0.051627 -0.062386 0.054843 0.083156 -0.077140 -49.050162 -15.513052 164.664202 -102.105598 57.456130 -11.446248 -7.435712 -59.863075 -23.560793 -2.315608 0.626072 0.045151 1.788906 -3.263127 -0.053190 0.052587 0.067889 0.066973 0.062559 0.068644 0.056337 
0.720368 17.774405 -0.509059 -101.133395 80.682592 -113.279219 -32.526775 14.351375 -7.493152 -95.519748 46.940483 -154.525911 -96.383510 48.724095 -87.633562 -6.076747 36.749837 16.872926 0.807234 0.025043 -40.990505 92.590531 24.216965 102.892165 107.437906 50.925213 173.229238 0.526898 24.149569 32.128270 -0.084693 -9.005164 -5.704496 0.875792 -0.307294 -39.570948 18.044616 0.052014 11.576082 162.545917 -78.348222 -160.612595 0.861421 1.810459 -40.463928 -6.990099 -6.049232 27.824235 -5.713195 -0.377548 -0.088643 0.070234 -0.076521 -0.069084 35.522399 3.027789 161.638630 89.457598 -26.870234 -121.454112 71.007555 -63.807382 -66.832239 10.177400 -2.422369 -0.363289 -0.538777 0.042512 0.025132 -0.065325 0.052434 -0.060264 0.080704 0.051074 -0.076971 -48.898558 -15.707901 162.096812 -109.853913 58.430523 -16.483336 -7.693112 -61.975185 -22.732289 -2.286713 0.953629 0.128498 1.709316 -3.234729 -0.027785 0.064469 0.054402 0.073406 0.055645 0.067981 0.065335 
0.581971 17.861852 0.020197 -100.841058 80.320360 -113.737902 -33.548063 14.964457 -7.269926 -98.324631 47.146637 -154.143868 -97.615783 45.031955 -84.041076 -0.820566 34.154670 13.722464 0.773858 0.028380 -38.775340 92.758795 24.053099 102.380881 111.080162 52.506775 177.855403 1.031978 23.926124 29.415899 0.720978 -7.612902 -3.252045 0.849570 -0.264631 -40.160908 18.834759 0.765852 13.180040 159.064196 -77.966489 -156.471154 0.745946 2.481074 -40.724656 -7.071241 -5.593335 27.089681 -5.816601 -0.293931 -0.104478 0.052956 -0.058673 -0.036430 36.857100 0.562107 164.030713 90.654400 -29.038615 -121.970714 70.776104 -62.331548 -63.691070 9.730973 -1.734326 -0.262960 -1.015745 0.336931 -0.012143 -0.055807 0.066482 -0.060671 0.074073 0.071520 -0.069094 -48.946440 -15.491515 159.758308 -117.038310 57.969109 -22.032191 -14.161263 -64.230993 -17.403241 -2.662391 -0.008691 0.067676 1.859162 -4.038290 -0.077277 0.051920 0.063615 0.068115 0.056347 0.072963 0.069969 
0.456591 17.930915 0.541701 -100.804401 80.147943 -114.140311 -34.337661 14.948153 -7.751433 -102.319389 47.635154 -154.729451 -97.656820 42.229900 -81.786935 0.040544 33.545636 11.783928 0.571562 0.029805 -36.323558 93.496880 24.430420 101.730519 114.963412 53.569367 -178.181068 2.760091 24.432930 27.246513 1.041465 -7.150117 -1.043632 0.793975 -0.211514 -40.902044 19.704282 1.589911 14.425287 155.867173 -78.012414 -153.598339 0.729469 2.733573 -40.198111 -6.786609 -5.386807 26.402590 -5.863187 -0.330937 -0.095393 0.069230 -0.088044 -0.074259 37.986970 -1.315567 166.625953 90.756149 -31.252203 -121.593797 68.429003 -60.456335 -58.832949 9.039715 -0.307939 -0.053910 -1.519714 0.442235 0.040832 -0.063039 0.062424 -0.070629 0.079476 0.064313 -0.074199 -48.413134 -16.056889 157.059823 -121.638982 56.710602 -25.200164 -24.751838 -66.366397 -9.381299 -2.525976 0.038748 0.097758 1.866419 -4.263706 -0.067800 0.063951 0.056053 0.064301 0.069846 0.069017 0.057671 
